<svg data-v-fde0c5aa="" xmlns="http://www.w3.org/2000/svg" viewBox="0 0 300 300" class="iconAbove"><!----><defs data-v-fde0c5aa=""><!----></defs><rect data-v-fde0c5aa="" fill="#fffff" x="0" y="0" width="300px" height="300px" class="logo-background-square"></rect><defs data-v-fde0c5aa=""><!----></defs><g data-v-fde0c5aa="" id="abeb6e06-dce6-49eb-b9c5-1f48ba6c8f40" fill=" #3a8bcd" transform="matrix(5.155691890258029,0,0,5.155691890258029,-0.8555380527629608,159.5155686973407)"><path d="M10.84 11.10L10.84 11.10L10.84 11.10Q10.96 11.03 11.15 10.89L11.15 10.89L11.15 10.89Q11.33 10.75 11.70 10.61L11.70 10.61L11.70 10.61Q12.07 10.47 12.68 10.36L12.68 10.36L12.68 10.36Q13.29 10.26 14.25 10.26L14.25 10.26L14.25 10.26Q14.96 10.26 15.50 10.43L15.50 10.43L15.50 10.43Q16.03 10.60 16.41 10.90L16.41 10.90L16.41 10.90Q16.79 11.19 17.04 11.59L17.04 11.59L17.04 11.59Q17.28 11.99 17.42 12.45L17.42 12.45L17.42 12.45Q17.57 12.91 17.62 13.41L17.62 13.41L17.62 13.41Q17.68 13.91 17.68 14.40L17.68 14.40L17.68 14.47L17.68 14.47Q17.67 15.29 17.67 15.73L17.67 15.73L17.67 15.73Q17.66 16.17 17.66 16.37L17.66 16.37L17.66 16.37Q17.66 16.58 17.66 16.61L17.66 16.61L17.66 16.61Q17.66 16.65 17.66 16.65L17.66 16.65L17.66 16.65Q17.66 16.94 17.74 17.10L17.74 17.10L17.74 17.10Q17.81 17.26 17.93 17.35L17.93 17.35L17.93 17.35Q18.04 17.43 18.17 17.46L18.17 17.46L18.17 17.46Q18.31 17.49 18.42 17.53L18.42 17.53L18.42 17.53Q18.53 17.57 18.61 17.63L18.61 17.63L18.61 17.63Q18.68 17.70 18.68 17.85L18.68 17.85L18.68 17.85Q18.68 18.24 18.49 18.52L18.49 18.52L18.49 18.52Q18.29 18.79 17.92 18.97L17.92 18.97L17.92 18.97Q17.54 19.15 16.99 19.24L16.99 19.24L16.99 19.24Q16.44 19.32 15.73 19.32L15.73 19.32L15.73 19.32Q15.04 19.32 14.50 19.24L14.50 19.24L14.50 19.24Q13.97 19.15 13.60 18.97L13.60 18.97L13.60 18.97Q13.23 18.79 13.04 18.52L13.04 18.52L13.04 18.52Q12.84 18.24 12.84 17.85L12.84 17.85L12.84 17.85Q12.84 17.70 12.90 17.63L12.90 17.63L12.90 17.63Q12.95 17.57 13.02 17.53L13.02 17.53L13.02 17.53Q13.10 17.50 13.19 17.47L13.19 17.47L13.19 17.47Q13.28 17.45 13.35 17.37L13.35 17.37L13.35 17.37Q13.43 17.29 13.48 17.14L13.48 17.14L13.48 17.14Q13.53 16.99 13.53 16.71L13.53 16.71L13.53 13.77L13.53 13.77Q13.53 13.36 13.48 13.03L13.48 13.03L13.48 13.03Q13.43 12.70 13.31 12.48L13.31 12.48L13.31 12.48Q13.19 12.25 13.00 12.13L13.00 12.13L13.00 12.13Q12.80 12.01 12.51 12.01L12.51 12.01L12.51 12.01Q12.06 12.01 11.86 12.29L11.86 12.29L11.86 12.29Q11.66 12.58 11.66 13.03L11.66 13.03L11.66 16.63L11.66 16.63Q11.66 16.93 11.71 17.09L11.71 17.09L11.71 17.09Q11.76 17.25 11.85 17.34L11.85 17.34L11.85 17.34Q11.94 17.42 12.03 17.46L12.03 17.46L12.03 17.46Q12.13 17.49 12.22 17.53L12.22 17.53L12.22 17.53Q12.30 17.57 12.36 17.63L12.36 17.63L12.36 17.63Q12.41 17.70 12.41 17.85L12.41 17.85L12.41 17.85Q12.41 18.24 12.26 18.52L12.26 18.52L12.26 18.52Q12.11 18.79 11.78 18.97L11.78 18.97L11.78 18.97Q11.46 19.15 10.95 19.24L10.95 19.24L10.95 19.24Q10.44 19.32 9.72 19.32L9.72 19.32L9.72 19.32Q9.03 19.32 8.49 19.24L8.49 19.24L8.49 19.24Q7.96 19.15 7.59 18.97L7.59 18.97L7.59 18.97Q7.22 18.79 7.03 18.52L7.03 18.52L7.03 18.52Q6.84 18.24 6.84 17.85L6.84 17.85L6.84 17.85Q6.84 17.70 6.89 17.63L6.89 17.63L6.89 17.63Q6.94 17.57 7.01 17.53L7.01 17.53L7.01 17.53Q7.09 17.50 7.18 17.47L7.18 17.47L7.18 17.47Q7.27 17.45 7.35 17.37L7.35 17.37L7.35 17.37Q7.42 17.29 7.48 17.14L7.48 17.14L7.48 17.14Q7.53 16.99 7.53 16.71L7.53 16.71L7.53 13.77L7.53 13.77Q7.53 12.94 7.32 12.48L7.32 12.48L7.32 12.48Q7.12 12.02 6.60 12.02L6.60 12.02L6.60 12.02Q6.40 12.02 6.21 12.10L6.21 12.10L6.21 12.10Q6.03 12.17 5.89 12.31L5.89 12.31L5.89 12.31Q5.74 12.46 5.66 12.65L5.66 12.65L5.66 12.65Q5.58 12.84 5.58 13.06L5.58 13.06L5.58 16.69L5.58 16.69Q5.58 16.97 5.64 17.12L5.64 17.12L5.64 17.12Q5.69 17.28 5.78 17.36L5.78 17.36L5.78 17.36Q5.87 17.44 5.98 17.47L5.98 17.47L5.98 17.47Q6.08 17.50 6.17 17.53L6.17 17.53L6.17 17.53Q6.26 17.57 6.32 17.63L6.32 17.63L6.32 17.63Q6.38 17.70 6.38 17.85L6.38 17.85L6.38 17.85Q6.38 18.63 5.60 18.97L5.60 18.97L5.60 18.97Q4.83 19.32 3.37 19.32L3.37 19.32L3.37 19.32Q2.67 19.32 2.11 19.24L2.11 19.24L2.11 19.24Q1.56 19.15 1.18 18.97L1.18 18.97L1.18 18.97Q0.80 18.79 0.60 18.52L0.60 18.52L0.60 18.52Q0.40 18.24 0.40 17.85L0.40 17.85L0.40 17.85Q0.40 17.70 0.47 17.63L0.47 17.63L0.47 17.63Q0.55 17.57 0.66 17.53L0.66 17.53L0.66 17.53Q0.77 17.50 0.90 17.47L0.90 17.47L0.90 17.47Q1.03 17.45 1.13 17.37L1.13 17.37L1.13 17.37Q1.24 17.29 1.32 17.14L1.32 17.14L1.32 17.14Q1.39 16.99 1.39 16.71L1.39 16.71L1.39 13.06L1.39 13.06Q1.39 12.79 1.32 12.64L1.32 12.64L1.32 12.64Q1.24 12.49 1.13 12.41L1.13 12.41L1.13 12.41Q1.03 12.33 0.90 12.30L0.90 12.30L0.90 12.30Q0.77 12.28 0.66 12.24L0.66 12.24L0.66 12.24Q0.55 12.21 0.47 12.14L0.47 12.14L0.47 12.14Q0.40 12.08 0.40 11.93L0.40 11.93L0.40 11.93Q0.40 11.54 0.59 11.26L0.59 11.26L0.59 11.26Q0.79 10.99 1.17 10.80L1.17 10.80L1.17 10.80Q1.55 10.62 2.10 10.54L2.10 10.54L2.10 10.54Q2.65 10.46 3.34 10.46L3.34 10.46L3.34 10.46Q3.65 10.46 3.90 10.49L3.90 10.49L3.90 10.49Q4.16 10.52 4.35 10.57L4.35 10.57L4.35 10.57Q4.55 10.62 4.69 10.69L4.69 10.69L4.69 10.69Q4.83 10.75 4.94 10.82L4.94 10.82L4.94 10.82Q5.17 10.99 5.27 11.18L5.27 11.18L5.27 11.18Q5.61 10.93 6.08 10.73L6.08 10.73L6.08 10.73Q6.48 10.55 7.06 10.40L7.06 10.40L7.06 10.40Q7.64 10.26 8.42 10.26L8.42 10.26L8.42 10.26Q9.23 10.26 9.85 10.49L9.85 10.49L9.85 10.49Q10.47 10.72 10.84 11.10ZM23.65 10.26L23.65 10.26L23.65 10.26Q24.67 10.26 25.39 10.49L25.39 10.49L25.39 10.49Q26.11 10.71 26.57 11.09L26.57 11.09L26.57 11.09Q27.04 11.48 27.25 11.99L27.25 11.99L27.25 11.99Q27.46 12.50 27.46 13.08L27.46 13.08L27.46 13.08Q27.46 13.32 27.38 13.50L27.38 13.50L27.38 13.50Q27.31 13.69 27.18 13.82L27.18 13.82L27.18 13.82Q27.06 13.95 26.88 14.01L26.88 14.01L26.88 14.01Q26.70 14.08 26.50 14.08L26.50 14.08L26.50 14.08Q26.32 14.08 26.13 14.02L26.13 14.02L26.13 14.02Q25.95 13.96 25.79 13.82L25.79 13.82L25.79 13.82Q25.62 13.69 25.49 13.47L25.49 13.47L25.49 13.47Q25.36 13.25 25.29 12.93L25.29 12.93L25.29 12.93Q25.24 12.71 25.13 12.54L25.13 12.54L25.13 12.54Q25.02 12.37 24.88 12.25L24.88 12.25L24.88 12.25Q24.74 12.13 24.57 12.07L24.57 12.07L24.57 12.07Q24.40 12.01 24.24 12.01L24.24 12.01L24.24 12.01Q23.95 12.01 23.73 12.13L23.73 12.13L23.73 12.13Q23.52 12.26 23.37 12.49L23.37 12.49L23.37 12.49Q23.23 12.73 23.16 13.07L23.16 13.07L23.16 13.07Q23.09 13.41 23.09 13.83L23.09 13.83L23.09 13.83Q23.09 15.47 23.59 16.26L23.59 16.26L23.59 16.26Q24.08 17.05 25.18 17.05L25.18 17.05L25.18 17.05Q25.49 17.05 25.82 16.96L25.82 16.96L25.82 16.96Q26.15 16.88 26.43 16.78L26.43 16.78L26.43 16.78Q26.71 16.67 26.91 16.59L26.91 16.59L26.91 16.59Q27.12 16.50 27.19 16.50L27.19 16.50L27.19 16.50Q27.35 16.50 27.44 16.64L27.44 16.64L27.44 16.64Q27.53 16.77 27.53 16.94L27.53 16.94L27.53 16.94Q27.53 16.99 27.52 17.04L27.52 17.04L27.52 17.04Q27.52 17.09 27.50 17.14L27.50 17.14L27.50 17.14Q27.30 17.64 26.94 18.07L26.94 18.07L26.94 18.07Q26.58 18.50 26.08 18.82L26.08 18.82L26.08 18.82Q25.57 19.13 24.94 19.31L24.94 19.31L24.94 19.31Q24.30 19.49 23.56 19.49L23.56 19.49L23.56 19.49Q22.79 19.49 22.16 19.31L22.16 19.31L22.16 19.31Q21.52 19.13 21.01 18.80L21.01 18.80L21.01 18.80Q20.50 18.48 20.12 18.04L20.12 18.04L20.12 18.04Q19.74 17.60 19.49 17.09L19.49 17.09L19.49 17.09Q19.23 16.57 19.10 16.01L19.10 16.01L19.10 16.01Q18.98 15.44 18.98 14.87L18.98 14.87L18.98 14.87Q18.98 14.29 19.11 13.72L19.11 13.72L19.11 13.72Q19.24 13.15 19.50 12.63L19.50 12.63L19.50 12.63Q19.76 12.12 20.15 11.69L20.15 11.69L20.15 11.69Q20.54 11.25 21.05 10.93L21.05 10.93L21.05 10.93Q21.57 10.62 22.22 10.44L22.22 10.44L22.22 10.44Q22.87 10.26 23.65 10.26ZM33.36 8.02L33.35 11.14L33.35 11.14Q33.54 10.99 33.79 10.83L33.79 10.83L33.79 10.83Q34.05 10.67 34.38 10.54L34.38 10.54L34.38 10.54Q34.72 10.42 35.14 10.34L35.14 10.34L35.14 10.34Q35.57 10.26 36.09 10.26L36.09 10.26L36.09 10.26Q36.78 10.26 37.31 10.46L37.31 10.46L37.31 10.46Q37.84 10.66 38.24 11.00L38.24 11.00L38.24 11.00Q38.63 11.33 38.90 11.79L38.90 11.79L38.90 11.79Q39.16 12.25 39.32 12.77L39.32 12.77L39.32 12.77Q39.48 13.29 39.55 13.84L39.55 13.84L39.55 13.84Q39.62 14.40 39.62 14.94L39.62 14.94L39.62 14.94Q39.62 15.51 39.53 16.07L39.53 16.07L39.53 16.07Q39.44 16.63 39.25 17.14L39.25 17.14L39.25 17.14Q39.06 17.64 38.77 18.07L38.77 18.07L38.77 18.07Q38.47 18.50 38.07 18.82L38.07 18.82L38.07 18.82Q37.67 19.13 37.15 19.31L37.15 19.31L37.15 19.31Q36.63 19.49 35.99 19.49L35.99 19.49L35.99 19.49Q35.40 19.49 34.94 19.39L34.94 19.39L34.94 19.39Q34.47 19.29 34.12 19.14L34.12 19.14L34.12 19.14Q33.77 18.99 33.52 18.81L33.52 18.81L33.52 18.81Q33.27 18.63 33.11 18.46L33.11 18.46L33.11 18.46Q33.01 18.66 32.86 18.82L32.86 18.82L32.86 18.82Q32.71 18.98 32.48 19.09L32.48 19.09L32.48 19.09Q32.26 19.20 31.94 19.26L31.94 19.26L31.94 19.26Q31.62 19.32 31.21 19.32L31.21 19.32L31.21 19.32Q30.47 19.32 29.90 19.24L29.90 19.24L29.90 19.24Q29.33 19.15 28.94 18.97L28.94 18.97L28.94 18.97Q28.55 18.79 28.35 18.52L28.35 18.52L28.35 18.52Q28.15 18.24 28.15 17.85L28.15 17.85L28.15 17.85Q28.15 17.70 28.23 17.63L28.23 17.63L28.23 17.63Q28.30 17.57 28.41 17.53L28.41 17.53L28.41 17.53Q28.52 17.50 28.65 17.47L28.65 17.47L28.65 17.47Q28.78 17.45 28.89 17.37L28.89 17.37L28.89 17.37Q29.00 17.29 29.07 17.14L29.07 17.14L29.07 17.14Q29.15 16.99 29.15 16.71L29.15 16.71L29.15 9.03L29.15 9.03Q29.15 8.75 29.07 8.60L29.07 8.60L29.07 8.60Q29.00 8.46 28.89 8.38L28.89 8.38L28.89 8.38Q28.78 8.30 28.65 8.27L28.65 8.27L28.65 8.27Q28.52 8.24 28.41 8.21L28.41 8.21L28.41 8.21Q28.30 8.18 28.23 8.11L28.23 8.11L28.23 8.11Q28.15 8.05 28.15 7.90L28.15 7.90L28.15 7.90Q28.15 7.51 28.35 7.23L28.35 7.23L28.35 7.23Q28.55 6.95 28.94 6.77L28.94 6.77L28.94 6.77Q29.33 6.59 29.90 6.51L29.90 6.51L29.90 6.51Q30.47 6.43 31.21 6.43L31.21 6.43L31.21 6.43Q31.94 6.43 32.37 6.50L32.37 6.50L32.37 6.50Q32.80 6.58 33.02 6.76L33.02 6.76L33.02 6.76Q33.24 6.94 33.30 7.25L33.30 7.25L33.30 7.25Q33.36 7.55 33.36 8.02L33.36 8.02ZM34.16 12.01L34.16 12.01L34.16 12.01Q33.92 12.01 33.71 12.09L33.71 12.09L33.71 12.09Q33.50 12.17 33.33 12.29L33.33 12.29L33.33 16.69L33.33 16.69Q33.33 16.88 33.33 17.08L33.33 17.08L33.33 17.08Q33.33 17.27 33.32 17.45L33.32 17.45L33.32 17.45Q33.51 17.56 33.75 17.66L33.75 17.66L33.75 17.66Q33.99 17.75 34.28 17.75L34.28 17.75L34.28 17.75Q34.67 17.75 34.87 17.62L34.87 17.62L34.87 17.62Q35.08 17.49 35.18 17.17L35.18 17.17L35.18 17.17Q35.27 16.84 35.29 16.31L35.29 16.31L35.29 16.31Q35.31 15.77 35.31 14.96L35.31 14.96L35.31 14.96Q35.31 14.12 35.25 13.55L35.25 13.55L35.25 13.55Q35.18 12.97 35.05 12.64L35.05 12.64L35.05 12.64Q34.91 12.30 34.69 12.15L34.69 12.15L34.69 12.15Q34.47 12.01 34.16 12.01ZM45.46 12.01L45.46 12.01L45.46 12.01Q45.24 12.01 45.05 12.11L45.05 12.11L45.05 12.11Q44.86 12.21 44.72 12.41L44.72 12.41L44.72 12.41Q44.58 12.62 44.50 12.94L44.50 12.94L44.50 12.94Q44.42 13.25 44.42 13.69L44.42 13.69L46.60 13.69L46.60 13.69Q46.60 13.21 46.53 12.89L46.53 12.89L46.53 12.89Q46.45 12.56 46.31 12.37L46.31 12.37L46.31 12.37Q46.16 12.17 45.95 12.09L45.95 12.09L45.95 12.09Q45.73 12.01 45.46 12.01ZM44.95 10.26L44.95 10.26L44.95 10.26Q45.87 10.26 46.60 10.53L46.60 10.53L46.60 10.53Q47.34 10.81 47.85 11.29L47.85 11.29L47.85 11.29Q48.37 11.76 48.65 12.41L48.65 12.41L48.65 12.41Q48.92 13.06 48.92 13.80L48.92 13.80L48.92 13.80Q48.92 14.11 48.84 14.28L48.84 14.28L48.84 14.28Q48.75 14.45 48.60 14.53L48.60 14.53L48.60 14.53Q48.44 14.62 48.21 14.64L48.21 14.64L48.21 14.64Q47.97 14.66 47.68 14.66L47.68 14.66L44.39 14.66L44.39 14.66Q44.39 15.41 44.55 15.88L44.55 15.88L44.55 15.88Q44.70 16.34 44.97 16.60L44.97 16.60L44.97 16.60Q45.25 16.86 45.63 16.96L45.63 16.96L45.63 16.96Q46.01 17.05 46.48 17.05L46.48 17.05L46.48 17.05Q46.72 17.05 46.99 17.00L46.99 17.00L46.99 17.00Q47.25 16.95 47.49 16.88L47.49 16.88L47.49 16.88Q47.74 16.80 47.94 16.72L47.94 16.72L47.94 16.72Q48.15 16.64 48.28 16.56L48.28 16.56L48.28 16.56Q48.39 16.50 48.49 16.50L48.49 16.50L48.49 16.50Q48.65 16.50 48.74 16.64L48.74 16.64L48.74 16.64Q48.83 16.77 48.83 16.93L48.83 16.93L48.83 16.93Q48.83 16.99 48.82 17.04L48.82 17.04L48.82 17.04Q48.82 17.08 48.79 17.13L48.79 17.13L48.79 17.13Q48.60 17.64 48.25 18.07L48.25 18.07L48.25 18.07Q47.91 18.50 47.42 18.82L47.42 18.82L47.42 18.82Q46.94 19.13 46.29 19.31L46.29 19.31L46.29 19.31Q45.65 19.49 44.85 19.49L44.85 19.49L44.85 19.49Q44.08 19.49 43.45 19.31L43.45 19.31L43.45 19.31Q42.82 19.13 42.31 18.80L42.31 18.80L42.31 18.80Q41.80 18.48 41.42 18.04L41.42 18.04L41.42 18.04Q41.04 17.60 40.78 17.09L40.78 17.09L40.78 17.09Q40.53 16.57 40.40 16.01L40.40 16.01L40.40 16.01Q40.28 15.44 40.28 14.87L40.28 14.87L40.28 14.87Q40.28 14.29 40.41 13.72L40.41 13.72L40.41 13.72Q40.54 13.15 40.80 12.63L40.80 12.63L40.80 12.63Q41.06 12.12 41.45 11.69L41.45 11.69L41.45 11.69Q41.84 11.25 42.36 10.93L42.36 10.93L42.36 10.93Q42.88 10.62 43.52 10.44L43.52 10.44L43.52 10.44Q44.17 10.26 44.95 10.26ZM54.65 12.01L54.65 12.01L54.65 12.01Q54.43 12.01 54.24 12.11L54.24 12.11L54.24 12.11Q54.05 12.21 53.91 12.41L53.91 12.41L53.91 12.41Q53.77 12.62 53.69 12.94L53.69 12.94L53.69 12.94Q53.61 13.25 53.61 13.69L53.61 13.69L55.79 13.69L55.79 13.69Q55.79 13.21 55.72 12.89L55.72 12.89L55.72 12.89Q55.64 12.56 55.50 12.37L55.50 12.37L55.50 12.37Q55.36 12.17 55.14 12.09L55.14 12.09L55.14 12.09Q54.93 12.01 54.65 12.01ZM54.15 10.26L54.15 10.26L54.15 10.26Q55.06 10.26 55.80 10.53L55.80 10.53L55.80 10.53Q56.53 10.81 57.05 11.29L57.05 11.29L57.05 11.29Q57.57 11.76 57.84 12.41L57.84 12.41L57.84 12.41Q58.12 13.06 58.12 13.80L58.12 13.80L58.12 13.80Q58.12 14.11 58.03 14.28L58.03 14.28L58.03 14.28Q57.95 14.45 57.79 14.53L57.79 14.53L57.79 14.53Q57.63 14.62 57.40 14.64L57.40 14.64L57.40 14.64Q57.17 14.66 56.88 14.66L56.88 14.66L53.59 14.66L53.59 14.66Q53.59 15.41 53.74 15.88L53.74 15.88L53.74 15.88Q53.89 16.34 54.17 16.60L54.17 16.60L54.17 16.60Q54.44 16.86 54.82 16.96L54.82 16.96L54.82 16.96Q55.21 17.05 55.67 17.05L55.67 17.05L55.67 17.05Q55.92 17.05 56.18 17.00L56.18 17.00L56.18 17.00Q56.44 16.95 56.69 16.88L56.69 16.88L56.69 16.88Q56.93 16.80 57.13 16.72L57.13 16.72L57.13 16.72Q57.34 16.64 57.48 16.56L57.48 16.56L57.48 16.56Q57.59 16.50 57.69 16.50L57.69 16.50L57.69 16.50Q57.85 16.50 57.93 16.64L57.93 16.64L57.93 16.64Q58.02 16.77 58.02 16.93L58.02 16.93L58.02 16.93Q58.02 16.99 58.02 17.04L58.02 17.04L58.02 17.04Q58.01 17.08 57.99 17.13L57.99 17.13L57.99 17.13Q57.79 17.64 57.45 18.07L57.45 18.07L57.45 18.07Q57.11 18.50 56.62 18.82L56.62 18.82L56.62 18.82Q56.13 19.13 55.49 19.31L55.49 19.31L55.49 19.31Q54.84 19.49 54.04 19.49L54.04 19.49L54.04 19.49Q53.28 19.49 52.65 19.31L52.65 19.31L52.65 19.31Q52.01 19.13 51.51 18.80L51.51 18.80L51.51 18.80Q51.00 18.48 50.61 18.04L50.61 18.04L50.61 18.04Q50.23 17.60 49.98 17.09L49.98 17.09L49.98 17.09Q49.72 16.57 49.60 16.01L49.60 16.01L49.60 16.01Q49.47 15.44 49.47 14.87L49.47 14.87L49.47 14.87Q49.47 14.29 49.60 13.72L49.60 13.72L49.60 13.72Q49.73 13.15 49.99 12.63L49.99 12.63L49.99 12.63Q50.25 12.12 50.64 11.69L50.64 11.69L50.64 11.69Q51.03 11.25 51.55 10.93L51.55 10.93L51.55 10.93Q52.07 10.62 52.72 10.44L52.72 10.44L52.72 10.44Q53.37 10.26 54.15 10.26Z"></path></g><defs data-v-fde0c5aa=""><!----></defs><g data-v-fde0c5aa="" id="cddad504-3245-4150-a050-676b74b34517" stroke="none" fill=" #3a8bcd" transform="matrix(5.386666666666667,0,0,5.386666666666667,42.26666666666668,-0.3999999999999986)"><path clip-rule="evenodd" d="M12 10.5v-3H8v2h2v13c0 1.1.9 2 2 2v5h2.3c-.2.3-.3.6-.3 1 0 1.1.9 2 2 2s2-.9 2-2c0-.4-.1-.7-.3-1h6.6c-.2.3-.3.6-.3 1 0 1.1.9 2 2 2s2-.9 2-2c0-.4-.1-.7-.3-1H30v-2H14v-3h16c1.1 0 2-.9 2-2v-12H12zm2 12h-2v-2h2v2zm0-4h-2v-2h2v2zm0-4h-2v-2h2v2zm4 8h-2v-2h2v2zm0-4h-2v-2h2v2zm0-4h-2v-2h2v2zm4 8h-2v-2h2v2zm0-4h-2v-2h2v2zm0-4h-2v-2h2v2zm4 8h-2v-2h2v2zm0-4h-2v-2h2v2zm0-4h-2v-2h2v2zm4 8h-2v-2h2v2zm0-4h-2v-2h2v2zm0-4h-2v-2h2v2z"></path></g><!----></svg>